:SAMPLES-PER-SECOND 30
:FULLY-SPECIFIED
:DEGREES
32
root  -52.0661 36.1536 -0.100976 -89.1216 85.0651 -94.4827
RightUpLeg  14.2017 2.57838 10.2545
RightLeg  11.3768 3.07524 -2.53152
RightFoot  -27.3162 -0.274774 -2.18667
RightToes  1.74622e-010 -1.59028e-015 9.93923e-017
Spine  -3.61426 10.7261 11.175
Spine1  23.4758 13.6381 -7.45787
HEad  -29.6488 -13.6769 12.2615
LeftShoulder1  9.93923e-017 0 1.22299e-017
LeftArm  60.6733 73.8837 -18.7334
LeftForeArm  -41.4664 -25.5309 15.7013
LeftHand  0.74548 5.3039 -0.0344526
RightShoulder  1.98785e-016 -4.96962e-017 1.55301e-017
RightArm  24.453 -13.2332 75.183
RightForeArm  -29.9973 30.7057 -28.237
RightHand  1.54833 -13.0708 -5.68843
LeftUpLeg  -51.238 -0.532198 2.62467
LeftLeg  23.1316 -4.17004 2.33639
LeftFoot  0.769345 0.619414 -4.97003
LeftToes  -5.36576e-011 -1.15168e-011 3.25213e-012
33
root  -49.4815 35.4085 0.0121847 -74.116 86.2246 -81.2153
RightUpLeg  16.578 2.4207 8.76258
RightLeg  11.7794 4.10167 -2.5813
RightFoot  -28.4481 0.0334428 0.0180915
RightToes  1.74622e-010 -1.59028e-015 9.93923e-017
Spine  -3.85305 12.2751 9.4402
Spine1  23.3475 15.9829 -9.07276
HEad  -32.7138 -15.5396 16.5421
LeftShoulder1  9.93923e-017 0 1.22299e-017
LeftArm  71.4458 72.6556 -3.34476
LeftForeArm  -39.4758 -29.1188 19.1441
LeftHand  0.656051 4.81285 0.858376
RightShoulder  1.98785e-016 -4.96962e-017 1.55301e-017
RightArm  20.7607 -12.0835 75.023
RightForeArm  -27.2622 31.4469 -28.9875
RightHand  1.60511 -13.4587 -5.69462
LeftUpLeg  -54.6552 0.623123 1.292
LeftLeg  29.3568 -5.70901 2.5971
LeftFoot  -1.15106 0.677475 -6.36109
LeftToes  -5.36576e-011 -1.15168e-011 3.25213e-012
34
root  -46.8548 34.8446 0.133342 -98.7486 88.4267 -107.748
RightUpLeg  18.1011 3.293 6.97419
RightLeg  13.4735 3.69171 -2.16043
RightFoot  -24.4419 0.539518 6.30088
RightToes  1.74622e-010 -1.59028e-015 9.93923e-017
Spine  -3.01479 12.4965 6.9586
Spine1  22.4726 17.5138 -12.3316
HEad  -36.044 -16.0257 21.2212
LeftShoulder1  9.93923e-017 0 1.22299e-017
LeftArm  67.723 69.7343 -2.49058
LeftForeArm  -38.4031 -31.5633 19.9434
LeftHand  0.554233 4.42661 2.73697
RightShoulder  1.98785e-016 -4.96962e-017 1.55301e-017
RightArm  15.9744 -12.0683 77.0407
RightForeArm  -24.7868 32.4827 -29.9702
RightHand  1.60092 -13.2735 -6.06422
LeftUpLeg  -55.6974 0.165418 -0.469427
LeftLeg  34.8749 -7.88388 1.96999
LeftFoot  -1.64442 0.70249 -6.85203
LeftToes  -5.36576e-011 -1.15168e-011 3.25213e-012
35
root  -44.3162 34.4241 0.275846 -166.204 87.1729 -176.498
RightUpLeg  16.3436 0.695688 4.94893
RightLeg  21.4115 2.43601 -2.89875
RightFoot  -12.709 -0.0221565 9.64582
RightToes  1.74622e-010 -1.59028e-015 9.93923e-017
Spine  0.0274267 10.3965 2.5463
Spine1  20.3377 15.8471 -14.2774
HEad  -40.1977 -15.2711 23.9319
LeftShoulder1  9.93923e-017 0 1.22299e-017
LeftArm  52.4325 66.3078 -17.8346
LeftForeArm  -40.817 -32.3778 20.1675
LeftHand  0.472389 4.23177 4.66076
RightShoulder  1.98785e-016 -4.96962e-017 1.55301e-017
RightArm  10.5401 -12.3819 81.3654
RightForeArm  -25.2899 33.4373 -30.7172
RightHand  1.65046 -13.0097 -7.57058
LeftUpLeg  -55.2074 -2.64161 -2.80699
LeftLeg  39.4784 -9.91971 0.799742
LeftFoot  -1.2581 0.37885 -3.66894
LeftToes  -5.36576e-011 -1.15168e-011 3.25213e-012
36
root  -41.9798 34.0726 0.408705 165.019 81.2005 154.688
RightUpLeg  9.50481 -5.6404 2.93131
RightLeg  38.3838 2.75004 -6.3529
RightFoot  0.210508 -0.501962 5.18049
RightToes  1.74622e-010 -1.59028e-015 9.93923e-017
Spine  5.17111 7.23478 -2.92027
Spine1  17.6806 11.4938 -13.136
HEad  -43.5498 -15.552 24.4412
LeftShoulder1  9.93923e-017 0 1.22299e-017
LeftArm  31.1584 56.6566 -44.3894
LeftForeArm  -41.4891 -31.898 19.9194
LeftHand  0.323617 3.7656 6.65223
RightShoulder  1.98785e-016 -4.96962e-017 1.55301e-017
RightArm  5.91683 -13.684 85.953
RightForeArm  -27.242 32.9026 -30.1463
RightHand  1.79201 -13.1695 -9.40516
LeftUpLeg  -53.9184 -6.88588 -5.31037
LeftLeg  44.429 -11.3065 -0.187852
LeftFoot  -2.2874 -0.1559 1.6515
LeftToes  -5.36576e-011 -1.15168e-011 3.25213e-012
37
root  -39.8523 33.8979 0.509021 167.185 75.3021 158.107
RightUpLeg  -1.55703 -9.59032 2.04748
RightLeg  61.0579 5.47303 -10.5185
RightFoot  4.86532 0.153211 -1.19159
RightToes  1.74622e-010 -1.59028e-015 9.93923e-017
Spine  10.7451 4.76281 -7.17921
Spine1  15.2787 7.21621 -10.9079
HEad  -42.8595 -17.536 24.7796
LeftShoulder1  9.93923e-017 0 1.22299e-017
LeftArm  21.3075 35.7419 -64.3106
LeftForeArm  -39.6285 -31.0941 19.6749
LeftHand  0.151062 3.15694 8.12108
RightShoulder  1.98785e-016 -4.96962e-017 1.55301e-017
RightArm  4.4177 -17.2211 88.1308
RightForeArm  -26.4266 30.1606 -28.0443
RightHand  1.80313 -13.4466 -8.86112
LeftUpLeg  -51.1334 -10.1054 -7.44312
LeftLeg  48.8316 -12.1283 -0.934508
LeftFoot  -5.03059 -0.389855 5.10141
LeftToes  -5.36576e-011 -1.15168e-011 3.25213e-012
